<svg width="217" height="32" viewBox="0 0 217 32" fill="none" xmlns="http://www.w3.org/2000/svg">
<path d="M41.2199 9.20738C41.915 7.88414 42.975 6.79558 44.27 6.07509C45.5741 5.34422 47.0685 4.97879 48.7534 4.97879C50.9072 4.97879 52.7101 5.55304 54.162 6.70155C55.6138 7.85006 56.564 9.46692 57.0123 11.5521H51.4041C50.9312 10.2177 50.0168 9.54995 48.6609 9.54895C48.2134 9.53533 47.7693 9.63218 47.3667 9.83117C46.9641 10.0302 46.615 10.3254 46.3494 10.6915C45.7748 11.4542 45.4874 12.5445 45.4874 13.9625C45.4874 15.3805 45.7748 16.4708 46.3494 17.2335C46.615 17.5995 46.9641 17.8946 47.3667 18.0933C47.7693 18.2921 48.2134 18.3886 48.6609 18.3746C50.0178 18.3746 50.9322 17.7068 51.4041 16.3714H57.0123C56.56 18.4168 55.6045 20.0232 54.1458 21.1906C52.6871 22.358 50.8896 22.9422 48.7534 22.9432C47.0685 22.9432 45.5741 22.5783 44.27 21.8484C42.9746 21.1284 41.9145 20.0397 41.2199 18.7161C40.4896 17.3588 40.1249 15.7728 40.1259 13.958C40.1268 12.1433 40.4915 10.5597 41.2199 9.20738Z" fill="white"/>
<path d="M66.7808 5.87525C67.7152 5.31848 68.7815 5.03123 69.8647 5.04444V10.7124H68.4167C67.1029 10.7124 66.117 10.9993 65.4591 11.573C64.8012 12.1468 64.4723 13.1536 64.4723 14.5935V22.7001H59.2003V5.23238H64.4694V8.14392C65.0546 7.21454 65.8463 6.43751 66.7808 5.87525Z" fill="white"/>
<path d="M89.985 5.23239L79.2002 30.9918H73.5287L77.4732 22.1035L70.4801 5.23239H76.3659L80.3412 16.1566L84.2842 5.23239H89.985Z" fill="white"/>
<path d="M98.0279 5.73356C98.9315 5.23637 99.9894 4.98777 101.201 4.98777C102.562 4.97153 103.899 5.352 105.053 6.08408C106.234 6.84778 107.178 7.93319 107.78 9.21637C108.448 10.5737 108.782 12.1493 108.782 13.9431C108.782 15.737 108.448 17.3136 107.78 18.6729C107.179 19.9645 106.235 21.0598 105.053 21.835C103.902 22.5753 102.564 22.9608 101.201 22.9448C100.104 22.969 99.0173 22.7126 98.0426 22.199C97.1799 21.7455 96.4436 21.0786 95.9015 20.2599V31.0231H90.631V5.23239H95.9015V7.70541C96.4331 6.87462 97.1651 6.19581 98.0279 5.73356ZM102.326 10.7885C101.98 10.4181 101.561 10.1253 101.097 9.92855C100.632 9.73182 100.133 9.63557 99.6301 9.64594C99.1305 9.6377 98.6349 9.73667 98.1756 9.93639C97.7163 10.1361 97.3036 10.4321 96.9647 10.8049C96.2344 11.5755 95.8697 12.6291 95.8707 13.9655C95.8716 15.302 96.2363 16.3555 96.9647 17.1262C97.3101 17.4937 97.7255 17.786 98.1856 17.9853C98.6458 18.1845 99.1411 18.2865 99.6413 18.2852C100.142 18.2838 100.636 18.179 101.095 17.9771C101.554 17.7753 101.968 17.4807 102.312 17.1112C103.05 16.3287 103.419 15.2696 103.42 13.9342C103.421 12.5987 103.057 11.5502 102.326 10.7885Z" fill="white"/>
<path d="M120.523 18.1598V22.7001H117.841C115.931 22.7001 114.442 22.2253 113.374 21.2757C112.306 20.326 111.771 18.7768 111.77 16.6279V9.67724H109.676V5.23237H111.77V0.976929H117.041V5.23237H120.492V9.67724H117.041V16.6876C117.041 17.2097 117.164 17.5826 117.411 17.8137C117.658 18.0449 118.067 18.1583 118.643 18.1583L120.523 18.1598Z" fill="white"/>
<path d="M126.516 21.8529C125.186 21.1373 124.085 20.0505 123.342 18.7206C122.572 17.3633 122.187 15.7773 122.187 13.9625C122.187 12.1726 122.578 10.5921 123.361 9.22083C124.113 7.88329 125.225 6.79183 126.567 6.07512C127.983 5.35419 129.544 4.97879 131.128 4.97879C132.711 4.97879 134.273 5.35419 135.688 6.07512C137.03 6.79223 138.142 7.88359 138.894 9.22083C139.677 10.5871 140.069 12.1677 140.069 13.9625C140.069 15.7574 139.673 17.3379 138.882 18.7042C138.121 20.0431 137.001 21.1342 135.651 21.8499C134.237 22.5917 132.665 22.9677 131.074 22.9447C129.489 22.9736 127.921 22.5982 126.516 21.8529ZM133.635 17.1888C134.343 16.438 134.697 15.3636 134.698 13.9655C134.699 12.5674 134.357 11.493 133.67 10.7422C133.344 10.3877 132.95 10.1048 132.512 9.9108C132.074 9.71685 131.602 9.616 131.124 9.61446C130.646 9.61292 130.173 9.71073 129.734 9.90186C129.295 10.093 128.899 10.3734 128.57 10.7258C127.892 11.4676 127.552 12.5475 127.552 13.9655C127.552 15.3636 127.886 16.438 128.554 17.1888C128.866 17.552 129.252 17.8412 129.686 18.036C130.12 18.2309 130.591 18.3266 131.065 18.3164C131.547 18.3224 132.026 18.225 132.468 18.0307C132.911 17.8364 133.309 17.5496 133.635 17.1888Z" fill="white"/>
<path d="M166.53 5.23239L161.878 22.7001H156.053L153.341 11.3642L150.536 22.7001H144.743L140.06 5.23388H145.329L147.764 17.7228L150.661 5.23239H156.241L159.168 17.6586L161.572 5.23239H166.53Z" fill="white"/>
<path d="M167.825 9.2074C168.427 7.92423 169.372 6.83881 170.552 6.07511C171.707 5.34304 173.043 4.96256 174.404 4.97881C175.512 4.95219 176.609 5.20863 177.594 5.72459C178.458 6.1793 179.186 6.86003 179.704 7.69644V5.23237H184.973V22.7001H179.704V20.2256C179.169 21.0586 178.431 21.7376 177.563 22.1975C176.578 22.7134 175.481 22.9699 174.373 22.9433C173.022 22.9558 171.696 22.5704 170.555 21.8335C169.374 21.0583 168.429 19.963 167.828 18.6714C167.16 17.3051 166.826 15.7246 166.827 13.9297C166.828 12.1349 167.161 10.5608 167.825 9.2074ZM178.61 10.8049C178.266 10.4399 177.853 10.1492 177.395 9.95014C176.938 9.75105 176.446 9.64765 175.948 9.64611C175.451 9.64458 174.958 9.74495 174.499 9.94123C174.041 10.1375 173.626 10.4257 173.279 10.7885C172.55 11.5512 172.185 12.5997 172.185 13.9342C172.185 15.2686 172.55 16.3277 173.279 17.1112C173.621 17.48 174.034 17.7742 174.492 17.9757C174.949 18.1772 175.443 18.2819 175.942 18.2832C176.44 18.2846 176.934 18.1828 177.393 17.9838C177.852 17.7849 178.266 17.493 178.61 17.1261C179.34 16.3555 179.705 15.3019 179.704 13.9655C179.703 12.6291 179.338 11.5755 178.61 10.8049Z" fill="white"/>
<path d="M195.574 5.87525C196.509 5.31848 197.575 5.03123 198.658 5.04444V10.7124H197.213C195.898 10.7124 194.912 10.9993 194.254 11.573C193.596 12.1468 193.268 13.1536 193.269 14.5935V22.7001H188V5.23238H193.269V8.14392C193.852 7.21522 194.642 6.43825 195.574 5.87525Z" fill="white"/>
<path d="M216.913 15.2423H204.987C205.07 16.3281 205.412 17.1579 206.015 17.7317C206.62 18.3053 207.423 18.6144 208.251 18.5923C209.565 18.5923 210.479 18.029 210.992 16.9024H216.601C216.317 18.0404 215.786 19.0992 215.045 20.0004C214.281 20.9298 213.316 21.6687 212.226 22.1602C211.033 22.6949 209.74 22.9615 208.436 22.9417C206.75 22.9417 205.25 22.5768 203.936 21.8469C202.631 21.1281 201.56 20.0399 200.852 18.7146C200.114 17.3573 199.744 15.7713 199.743 13.9565C199.742 12.1418 200.107 10.5558 200.837 9.19844C201.536 7.87206 202.602 6.78296 203.904 6.06615C205.219 5.33528 206.729 4.96985 208.434 4.96985C210.098 4.96985 211.577 5.32484 212.87 6.03483C214.149 6.72812 215.203 7.78224 215.906 9.07017C216.635 10.3857 217 11.9196 217 13.6717C217.001 14.1965 216.972 14.7209 216.913 15.2423ZM211.613 12.2696C211.613 11.3508 211.305 10.6204 210.688 10.0785C210.072 9.53653 209.3 9.26904 208.374 9.27601C207.56 9.25131 206.765 9.52982 206.139 10.0591C205.533 10.5811 205.158 11.3219 205.014 12.2815L211.613 12.2696Z" fill="white"/>
<path d="M31.5966 24.1917H16.5414C15.8955 24.1907 15.2685 23.9697 14.7608 23.5641C14.2531 23.1585 13.894 22.5917 13.7409 21.9543C13.6866 21.7257 13.659 21.4914 13.6587 21.2563V10.6661C14.2429 10.6661 14.8032 10.9018 15.2163 11.3214C15.6294 11.741 15.8615 12.3101 15.8615 12.9035V21.2563C15.8619 21.441 15.9342 21.6181 16.0627 21.7489C16.1912 21.8797 16.3654 21.9535 16.5473 21.9543H31.5966C31.7787 21.9539 31.9531 21.8802 32.0817 21.7493C32.2102 21.6185 32.2824 21.4411 32.2824 21.2563V5.97664C32.2824 5.7919 32.2102 5.61473 32.0816 5.48409C31.953 5.35346 31.7785 5.28008 31.5966 5.28008H25.3246C24.7404 5.28008 24.1801 5.04436 23.767 4.62477C23.3539 4.20519 23.1218 3.63611 23.1218 3.04272H31.5922C32.3572 3.04272 33.0908 3.35136 33.6316 3.90074C34.1725 4.45011 34.4764 5.19523 34.4764 5.97216V21.2667C34.4752 22.0421 34.1715 22.7854 33.6316 23.3337C33.0918 23.8819 32.36 24.1905 31.5966 24.1917Z" fill="white"/>
<path d="M11.3737 24.1917C11.3737 23.5983 11.1416 23.0293 10.7285 22.6097C10.3154 22.1901 9.75511 21.9544 9.17089 21.9544H2.88417C2.70327 21.9548 2.52947 21.8829 2.40032 21.7542C2.27117 21.6256 2.19705 21.4505 2.19397 21.2668V5.97521C2.19474 5.79085 2.26729 5.61429 2.39578 5.48406C2.52426 5.35384 2.69825 5.28053 2.87976 5.28014H17.9379C18.028 5.28014 18.1172 5.29815 18.2004 5.33316C18.2836 5.36816 18.3592 5.41947 18.4229 5.48415C18.4866 5.54884 18.5371 5.62562 18.5715 5.71014C18.606 5.79465 18.6237 5.88522 18.6237 5.9767V14.3369C18.6237 14.9303 18.8558 15.4994 19.2689 15.919C19.682 16.3386 20.2423 16.5743 20.8265 16.5743V5.98416C20.8261 5.20734 20.5221 4.46246 19.9813 3.91317C19.4405 3.36388 18.7072 3.05511 17.9424 3.05472H2.8827C2.11816 3.05472 1.38493 3.3632 0.844324 3.91229C0.303713 4.46139 0 5.20612 0 5.98266V21.2668C0.00116726 22.0429 0.30555 22.7869 0.84631 23.3353C1.38707 23.8837 2.12 24.1917 2.88417 24.1917H11.3737Z" fill="white"/>
</svg>
