<svg width="153" height="73" viewBox="0 0 153 73" fill="none" xmlns="http://www.w3.org/2000/svg">
<path d="M47.6466 48.213C46.5144 48.2243 45.4023 47.9125 44.4401 47.3138C43.4807 46.7259 42.6836 45.906 42.1218 44.9291C41.5468 43.9346 41.2491 42.8032 41.2597 41.6535V40.1434C41.2564 40.1211 41.2584 40.0984 41.2654 40.077C41.2725 40.0556 41.2844 40.0362 41.3003 40.0202C41.3161 40.0043 41.3355 39.9923 41.3568 39.9853C41.3781 39.9782 41.4008 39.9763 41.423 39.9796H45.0719C45.1585 39.9796 45.2009 40.0336 45.2009 40.1434V41.6453C45.1885 42.3312 45.446 42.9944 45.9176 43.4911C46.1358 43.7341 46.4027 43.928 46.7008 44.0604C46.9989 44.1927 47.3215 44.2604 47.6474 44.259C47.9734 44.2576 48.2954 44.1872 48.5923 44.0523C48.8893 43.9174 49.1545 43.7212 49.3706 43.4764C49.836 42.9817 50.0923 42.3254 50.0857 41.6453C50.0857 40.8416 49.5649 40.145 48.5233 39.5554L46.8907 38.6398C46.1516 38.2271 45.4567 37.8351 44.8058 37.4639C43.6086 36.7683 42.7237 35.8916 42.1512 34.8335C41.5713 33.7325 41.2803 32.5015 41.3055 31.2565C41.288 30.1012 41.5922 28.9639 42.1838 27.9726C42.7541 27.0206 43.5549 26.2285 44.5119 25.6698C45.4723 25.1113 46.5632 24.8185 47.6733 24.8214C48.7833 24.8243 49.8727 25.1227 50.8302 25.6862C51.7809 26.2531 52.5737 27.0513 53.1355 28.007C53.714 28.9911 54.0122 30.1157 53.9975 31.2581V33.936C53.9999 33.9538 53.9982 33.9719 53.9925 33.9889C53.9868 34.0059 53.9773 34.0213 53.9646 34.034C53.952 34.0467 53.9366 34.0563 53.9196 34.062C53.9027 34.0677 53.8846 34.0694 53.8669 34.067H50.2196C50.2019 34.0694 50.1838 34.0677 50.1669 34.062C50.1499 34.0563 50.1345 34.0467 50.1219 34.034C50.1092 34.0213 50.0997 34.0059 50.094 33.9889C50.0883 33.9719 50.0866 33.9538 50.089 33.936L50.0563 31.2565C50.0696 30.9136 50.013 30.5716 49.8901 30.2515C49.7671 29.9313 49.5804 29.6396 49.3412 29.3943C49.1225 29.165 48.8593 28.9829 48.5679 28.8593C48.2765 28.7356 47.963 28.673 47.6466 28.6753C47.321 28.6726 46.9986 28.7398 46.701 28.8722C46.4034 29.0047 46.1374 29.1994 45.9209 29.4434C45.4539 29.9299 45.1965 30.5811 45.2042 31.2565C45.1799 31.8887 45.3387 32.5145 45.6613 33.0581C45.965 33.5385 46.5184 33.996 47.3217 34.4306C47.4294 34.4961 47.6482 34.6108 47.9568 34.7746C48.2653 34.9383 48.6098 35.1218 48.9821 35.3298C49.3543 35.5378 49.6825 35.7163 49.9763 35.8686C50.2702 36.0209 50.4482 36.1192 50.5135 36.1618C51.5257 36.708 52.4044 37.4727 53.0865 38.4007C53.7145 39.2819 54.0291 40.365 54.0302 41.6502C54.0481 42.7968 53.764 43.9279 53.2064 44.9291C52.6488 45.9302 51.8375 46.7658 50.8547 47.3515C49.8842 47.928 48.7744 48.2261 47.6466 48.213Z" fill="white"/>
<path d="M62.3337 48.213C61.2015 48.2243 60.0894 47.9125 59.1272 47.3138C58.1674 46.7226 57.3673 45.9037 56.7974 44.9291C56.2123 43.9381 55.9085 42.8053 55.9191 41.6535L55.9517 31.2974C55.9376 30.1471 56.2362 29.0146 56.8154 28.0218C57.3809 27.0525 58.1825 26.2432 59.1452 25.6698C60.107 25.086 61.2112 24.781 62.3353 24.7887C63.4607 24.7751 64.567 25.0806 65.5271 25.6698C66.4752 26.2508 67.2645 27.059 67.8242 28.0218C68.3997 29.0107 68.6971 30.1376 68.6846 31.2827L68.7172 41.6387C68.7279 42.7884 68.4302 43.9198 67.8552 44.9144C67.2943 45.8903 66.499 46.7101 65.5418 47.2991C64.5805 47.9029 63.4678 48.2199 62.3337 48.213ZM62.3337 44.2593C62.6595 44.258 62.9812 44.1859 63.2766 44.0479C63.5719 43.9099 63.834 43.7093 64.0447 43.46C64.5136 42.9728 64.7763 42.3225 64.7777 41.6453L64.7451 31.2892C64.7607 30.6138 64.5156 29.9583 64.061 29.4598C63.8447 29.2162 63.5782 29.0228 63.2799 28.893C62.9816 28.7632 62.6587 28.7 62.3337 28.708C62.0109 28.704 61.6909 28.7673 61.3938 28.8939C61.0968 29.0205 60.8292 29.2076 60.608 29.4434C60.372 29.6863 60.187 29.9743 60.0639 30.2902C59.9408 30.6061 59.8821 30.9436 59.8913 31.2827V41.6387C59.8788 42.3246 60.1363 42.9878 60.608 43.4846C60.8239 43.7297 61.0896 43.9257 61.3872 44.0593C61.6849 44.1929 62.0076 44.2611 62.3337 44.2593Z" fill="white"/>
<path d="M71.323 47.8854C71.2348 47.8854 71.1924 47.8314 71.1924 47.7216L71.225 25.3095C71.2217 25.2872 71.2237 25.2645 71.2307 25.2431C71.2377 25.2217 71.2497 25.2023 71.2655 25.1863C71.2814 25.1704 71.3008 25.1585 71.3221 25.1514C71.3434 25.1443 71.3661 25.1424 71.3883 25.1457H75.0029C75.0251 25.1424 75.0478 25.1443 75.0691 25.1514C75.0904 25.1585 75.1098 25.1704 75.1257 25.1863C75.1416 25.2023 75.1535 25.2217 75.1605 25.2431C75.1676 25.2645 75.1695 25.2872 75.1662 25.3095L75.1335 43.8662H81.8436C81.8658 43.8629 81.8885 43.8648 81.9098 43.8719C81.9311 43.8789 81.9505 43.8909 81.9664 43.9068C81.9823 43.9227 81.9942 43.9422 82.0012 43.9636C82.0083 43.9849 82.0102 44.0077 82.0069 44.03V47.7216C82.0102 47.7439 82.0083 47.7667 82.0012 47.788C81.9942 47.8094 81.9823 47.8289 81.9664 47.8448C81.9505 47.8607 81.9311 47.8727 81.9098 47.8797C81.8885 47.8868 81.8658 47.8887 81.8436 47.8854H71.323Z" fill="white"/>
<path d="M84.1211 47.8854C84.0346 47.8854 83.9905 47.8314 83.9905 47.7217V29.1011H79.7571C79.7349 29.1044 79.7122 29.1025 79.6909 29.0954C79.6696 29.0883 79.6502 29.0764 79.6344 29.0604C79.6185 29.0445 79.6066 29.0251 79.5995 29.0037C79.5925 28.9823 79.5905 28.9596 79.5939 28.9373L79.6265 25.2784C79.6241 25.2606 79.6258 25.2425 79.6315 25.2255C79.6372 25.2085 79.6467 25.193 79.6594 25.1803C79.672 25.1676 79.6874 25.1581 79.7044 25.1523C79.7213 25.1466 79.7394 25.1449 79.7571 25.1474H92.1324C92.2402 25.1474 92.2957 25.1916 92.2957 25.2784V28.9373C92.2957 29.047 92.2516 29.1011 92.1651 29.1011H87.899L87.9317 47.7233C87.9317 47.8314 87.8876 47.8871 87.8011 47.8871L84.1211 47.8854Z" fill="white"/>
<path d="M94.0214 47.8854C93.9332 47.8854 93.8907 47.8314 93.8907 47.7217L93.9234 25.2833C93.9234 25.1965 93.9773 25.1523 94.0867 25.1523H97.7013C97.809 25.1523 97.8646 25.1965 97.8646 25.2833L97.8319 34.1686H102.717V25.2784C102.714 25.2606 102.716 25.2425 102.722 25.2255C102.727 25.2085 102.737 25.193 102.75 25.1803C102.762 25.1676 102.778 25.1581 102.795 25.1523C102.812 25.1466 102.83 25.1449 102.847 25.1474H106.462C106.57 25.1474 106.625 25.1916 106.625 25.2784L106.691 47.7167C106.694 47.739 106.692 47.7618 106.685 47.7831C106.678 47.8045 106.666 47.824 106.65 47.8399C106.634 47.8558 106.615 47.8678 106.593 47.8748C106.572 47.8819 106.549 47.8838 106.527 47.8805H102.878C102.856 47.8838 102.833 47.8819 102.812 47.8748C102.791 47.8678 102.771 47.8558 102.756 47.8399C102.74 47.824 102.728 47.8045 102.721 47.7831C102.714 47.7618 102.712 47.739 102.715 47.7167V38.1174H97.8319V47.7233C97.8319 47.8314 97.7878 47.8871 97.7013 47.8871L94.0214 47.8854Z" fill="white"/>
<path d="M108.253 47.7233L112.29 25.2849C112.298 25.2474 112.319 25.2137 112.348 25.1898C112.378 25.1658 112.415 25.1531 112.454 25.1539H117.175C117.213 25.1531 117.251 25.1658 117.281 25.1898C117.31 25.2137 117.331 25.2474 117.339 25.2849L121.214 47.7233C121.236 47.8314 121.192 47.8871 121.084 47.8871H117.469C117.381 47.8871 117.327 47.833 117.306 47.7233L116.947 45.3386H112.519L112.161 47.7233C112.141 47.8325 112.086 47.8871 111.998 47.8871H108.382C108.295 47.8854 108.253 47.8248 108.253 47.7233ZM113.17 41.8418H116.297L114.961 32.6617L114.774 31.4465L114.643 32.6552L113.17 41.8418Z" fill="white"/>
<path d="M124.406 47.8854C124.32 47.8854 124.266 47.8308 124.243 47.7216L120.4 25.2833C120.377 25.1965 120.41 25.1523 120.498 25.1523H124.145C124.183 25.1515 124.22 25.1642 124.25 25.1881C124.28 25.2121 124.301 25.2457 124.308 25.2833L126.391 40.05L128.542 25.2833C128.552 25.2412 128.578 25.2045 128.614 25.1803C128.65 25.1561 128.693 25.1461 128.736 25.1523H131.675C131.713 25.1494 131.752 25.1613 131.782 25.1856C131.812 25.2099 131.832 25.2448 131.838 25.2833L133.96 40.05L136.083 25.2833C136.088 25.2448 136.108 25.2099 136.139 25.1856C136.169 25.1613 136.207 25.1494 136.246 25.1523H139.861C139.97 25.1523 140.013 25.1965 139.991 25.2833L136.117 47.7216C136.074 47.7864 136.018 47.842 135.954 47.8854H131.993C131.928 47.8854 131.874 47.8314 131.83 47.7216L130.169 35.9947L128.509 47.7233C128.486 47.8314 128.432 47.8871 128.346 47.8871L124.406 47.8854Z" fill="white"/>
<path d="M36.7178 45.6138C35.7272 46.3446 34.5885 46.8479 33.3823 47.0878C32.9155 47.1812 32.4411 47.2311 31.9652 47.2369C27.3547 47.5857 26.2771 49.7116 22.1776 50.5404C18.5858 51.2119 18.243 49.9639 17.4805 47.227C17.4675 47.1795 17.4528 47.1337 17.4381 47.0878C16.7671 44.9111 14.9891 43.9759 13.3386 43.1865L13.0855 43.0751C12.6724 42.8786 12.3655 42.3774 12.3263 41.7796C12.3214 41.7333 12.3214 41.6866 12.3263 41.6404C12.3523 41.5051 12.4104 41.378 12.4956 41.27C12.5809 41.1619 12.6908 41.0761 12.8161 41.0196C13.0514 40.8909 13.3155 40.8244 13.5835 40.8264H13.7941C13.8529 41.1209 13.9536 41.4055 14.0928 41.6715C14.0981 41.6785 14.1025 41.6863 14.1059 41.6944L14.1761 41.8189C14.1756 41.8232 14.1756 41.8276 14.1761 41.832C14.1924 41.8615 14.2104 41.8893 14.2283 41.9172L14.2806 41.9958L14.3214 42.0547C14.4239 42.1997 14.5386 42.3356 14.6643 42.4609C14.6826 42.4807 14.7023 42.4993 14.723 42.5166C14.7802 42.5723 14.8406 42.6263 14.9026 42.6804C14.9647 42.7344 15.0561 42.8 15.1377 42.8556L15.2259 42.9146L15.283 42.949C15.283 42.949 15.283 42.949 15.2928 42.949C15.3196 42.9674 15.348 42.9833 15.3777 42.9965C15.3867 43.0037 15.3966 43.0097 15.4071 43.0145L15.5034 43.0653L15.6357 43.1292C15.6879 43.1521 15.7418 43.1734 15.7989 43.193L24.2527 46.4196C24.9894 46.6975 25.8016 46.6975 26.5383 46.4196L34.9905 43.193C35.0362 43.1767 35.0802 43.1586 35.1243 43.139L35.2256 43.0931L35.2696 43.0718C35.3137 43.0505 35.3562 43.0276 35.3986 43.0047C35.5276 42.9339 35.6515 42.8539 35.7692 42.7656L35.8835 42.6755C35.9586 42.6149 36.0304 42.5494 36.1006 42.4806C36.1349 42.4478 36.1692 42.4134 36.2019 42.3774C36.2345 42.3414 36.2672 42.3053 36.2982 42.2677C36.3292 42.23 36.3602 42.194 36.3896 42.1563C36.419 42.1186 36.4484 42.0793 36.4761 42.04C36.5039 42.0007 36.53 41.9614 36.5561 41.9188C36.5823 41.8762 36.5921 41.8648 36.6084 41.8353C36.6247 41.8058 36.6296 41.7992 36.6394 41.7812C36.6492 41.7632 36.6721 41.7223 36.6884 41.6928C36.7047 41.6633 36.6884 41.6764 36.7015 41.6699C36.8084 41.4657 36.8927 41.2504 36.9529 41.0278C37.1239 41.0787 37.2883 41.1496 37.4427 41.2391C38.0957 41.6158 38.4222 42.1039 38.4908 42.6378C38.6296 43.6058 37.9031 44.7228 36.7178 45.6138Z" fill="#6895CF"/>
<path style="mix-blend-mode:overlay" d="M38.5071 42.6411C38.4059 43.3322 37.73 44.0775 36.7113 44.6916C35.2675 45.5353 33.6294 45.9868 31.9587 46.0019C27.3481 46.2853 26.2706 48.0001 22.1711 48.6699C18.5793 49.2137 18.2364 48.2048 17.474 45.9954C17.461 45.956 17.4463 45.9184 17.4316 45.8823C16.7606 44.1233 14.9826 43.3715 13.332 42.7328L13.079 42.6345C12.8745 42.5517 12.6963 42.4147 12.5634 42.2382C12.4306 42.0616 12.348 41.8521 12.3247 41.6322C12.3507 41.4968 12.4087 41.3698 12.494 41.2618C12.5792 41.1537 12.6892 41.0678 12.8145 41.0114C13.0498 40.8827 13.3138 40.8162 13.5818 40.8182H13.7924C13.8513 41.1127 13.9519 41.3973 14.0912 41.6633C14.0965 41.6703 14.1009 41.678 14.1043 41.6862L14.1745 41.8107C14.174 41.815 14.174 41.8194 14.1745 41.8238C14.1908 41.8533 14.2088 41.8811 14.2267 41.909L14.279 41.9876L14.3198 42.0465C14.4223 42.1915 14.537 42.3274 14.6626 42.4527C14.681 42.4725 14.7006 42.4911 14.7214 42.5084C14.7785 42.5641 14.839 42.6181 14.901 42.6722C14.963 42.7262 15.0545 42.7917 15.1361 42.8474L15.2243 42.9064L15.2814 42.9408C15.2814 42.9408 15.2814 42.9408 15.2912 42.9408C15.318 42.9592 15.3464 42.9751 15.3761 42.9883C15.3851 42.9955 15.395 43.0015 15.4055 43.0063L15.5018 43.0571L15.634 43.121C15.6863 43.1439 15.7402 43.1652 15.7973 43.1848L24.251 46.4114C24.9878 46.6892 25.8 46.6892 26.5367 46.4114L34.9888 43.1848C35.0345 43.1685 35.0786 43.1504 35.1227 43.1308L35.2239 43.0849L35.268 43.0636C35.3121 43.0423 35.3545 43.0194 35.397 42.9965C35.526 42.9256 35.6498 42.8457 35.7676 42.7574L35.8819 42.6673C35.957 42.6067 36.0288 42.5412 36.099 42.4724C36.1333 42.4396 36.1676 42.4052 36.2002 42.3692C36.2329 42.3332 36.2655 42.2971 36.2966 42.2595C36.3276 42.2218 36.3586 42.1857 36.388 42.1481C36.4174 42.1104 36.4468 42.0711 36.4745 42.0318C36.5023 41.9925 36.5284 41.9532 36.5545 41.9106C36.5806 41.868 36.5904 41.8565 36.6068 41.8271C36.6231 41.7976 36.628 41.791 36.6378 41.773C36.6476 41.755 36.6704 41.7141 36.6868 41.6846C36.7031 41.6551 36.6868 41.6682 36.6998 41.6616C36.8068 41.4575 36.8911 41.2422 36.9512 41.0196C37.1222 41.0704 37.2866 41.1414 37.441 41.2309C38.112 41.6191 38.4386 42.1071 38.5071 42.6411Z" fill="url(#paint0_linear_26_92)"/>
<path d="M37.0786 27.8842V40.1679C37.0791 40.4445 37.0429 40.7199 36.9708 40.9869C36.9691 40.9998 36.9658 41.0124 36.9611 41.0245C36.9009 41.2471 36.8166 41.4624 36.7096 41.6666C36.7096 41.6666 36.7096 41.6813 36.6966 41.6895C36.6835 41.6977 36.6655 41.7501 36.6476 41.7779C36.6296 41.8058 36.628 41.814 36.6166 41.832C36.6051 41.85 36.5823 41.8877 36.5643 41.9155C36.5464 41.9434 36.5104 41.9974 36.4843 42.0367C36.4582 42.076 36.4272 42.1153 36.3978 42.153C36.3684 42.1907 36.339 42.2283 36.3064 42.2644C36.2737 42.3004 36.2427 42.3381 36.21 42.3741C36.1774 42.4101 36.1431 42.4445 36.1088 42.4773C36.0386 42.5461 35.9668 42.6116 35.8917 42.6722L35.7774 42.7623C35.6596 42.8507 35.5358 42.9306 35.4068 43.0014C35.3643 43.0243 35.3219 43.0473 35.2778 43.0686L35.2337 43.0898L35.1325 43.1357C35.0884 43.1554 35.0443 43.1734 34.9986 43.1898L26.5465 46.4163C26.1814 46.5552 25.7942 46.6262 25.4037 46.6259V30.5227L33.6321 27.3879L36.6362 26.2414C36.9282 26.7391 37.081 27.3066 37.0786 27.8842Z" fill="url(#paint1_linear_26_92)"/>
<path d="M25.3956 30.5227V46.6292C25.0051 46.6292 24.6179 46.5581 24.2527 46.4196L15.799 43.193C15.7451 43.1734 15.6912 43.1521 15.6357 43.1291L15.5035 43.0653L15.4071 43.0145C15.3967 43.0097 15.3868 43.0037 15.3778 42.9965C15.3481 42.9832 15.3197 42.9674 15.2929 42.949C15.2929 42.949 15.2929 42.949 15.2831 42.949L15.2259 42.9146L15.1378 42.8556C15.0561 42.7999 14.9745 42.7426 14.9027 42.6804C14.8308 42.6181 14.7802 42.5756 14.7231 42.5166C14.7023 42.4993 14.6827 42.4807 14.6643 42.4609C14.5387 42.3356 14.424 42.1997 14.3215 42.0547L14.2806 41.9958L14.2284 41.9171C14.2104 41.8893 14.1925 41.8615 14.1761 41.832C14.1756 41.8276 14.1756 41.8232 14.1761 41.8189L14.1059 41.6944C14.1026 41.6862 14.0982 41.6785 14.0929 41.6715C13.9536 41.4055 13.853 41.1209 13.7941 40.8263C13.7494 40.6109 13.7269 40.3913 13.7272 40.1712V27.8874C13.7273 27.3114 13.8812 26.7458 14.1729 26.2496L25.3956 30.5227Z" fill="url(#paint2_linear_26_92)"/>
<path d="M36.6313 26.2414L25.4004 30.526L14.168 26.2414C14.5901 25.5209 15.2742 24.9925 16.0765 24.7674L24.5319 22.3925C25.1 22.2331 25.7009 22.2331 26.269 22.3925L34.7227 24.7674C35.5253 24.992 36.2096 25.5205 36.6313 26.2414Z" fill="url(#paint3_linear_26_92)"/>
<path style="mix-blend-mode:overlay" d="M34.5203 29.3173V38.9183C34.5203 39.3262 34.4217 39.728 34.233 40.0893L34.2232 40.1073L34.184 40.1778L34.1595 40.2203L34.1187 40.2859C34.0991 40.3186 34.0779 40.3481 34.0566 40.3792C34.0116 40.4397 33.9653 40.4992 33.9179 40.5577C33.8934 40.5872 33.8689 40.6151 33.8428 40.6429C33.8166 40.6708 33.7889 40.6986 33.7628 40.7232C33.7089 40.7772 33.6517 40.828 33.5995 40.8755L33.5097 40.9459C33.4177 41.0155 33.3206 41.0779 33.2191 41.1326L33.1195 41.1867L33.0836 41.2014L33.0052 41.2374C32.9709 41.2538 32.935 41.2669 32.9007 41.2817L26.2853 43.8023C25.9976 43.9124 25.692 43.9679 25.3841 43.9661C25.0795 43.9661 24.7775 43.9106 24.4927 43.8023L17.8936 41.2833L17.7695 41.2325C17.7353 41.2162 17.6993 41.1998 17.6667 41.1818C17.634 41.1637 17.6161 41.1556 17.5916 41.1424L17.5671 41.1293L17.5002 41.0917L17.4561 41.0655L17.3859 41.0196C17.3238 40.9754 17.2618 40.9312 17.203 40.882C17.154 40.8432 17.1071 40.8016 17.0626 40.7576C17.0462 40.7441 17.0309 40.7293 17.0169 40.7133C16.9194 40.6153 16.8298 40.5096 16.7492 40.3972C16.7377 40.3825 16.7279 40.3661 16.7165 40.3497C16.7016 40.3299 16.688 40.3091 16.6757 40.2875L16.6349 40.2236C16.6352 40.2198 16.6352 40.216 16.6349 40.2122C16.6153 40.1794 16.5973 40.1466 16.581 40.1139L16.5712 40.0959C16.3812 39.735 16.282 39.333 16.2822 38.9248V29.3173C16.2828 28.7657 16.4631 28.2294 16.7955 27.79C17.1279 27.3507 17.5944 27.0323 18.1238 26.8834L24.7294 25.0278C25.1737 24.9033 25.6435 24.9033 26.0878 25.0278L32.6934 26.8834C33.2201 27.035 33.6833 27.3545 34.0129 27.7936C34.3425 28.2327 34.5206 28.7676 34.5203 29.3173Z" fill="url(#paint4_linear_26_92)"/>
<defs>
<linearGradient id="paint0_linear_26_92" x1="12.3312" y1="44.821" x2="38.5071" y2="44.821" gradientUnits="userSpaceOnUse">
<stop stop-color="white" stop-opacity="0.35"/>
<stop offset="1" stop-color="#6895CF"/>
</linearGradient>
<linearGradient id="paint1_linear_26_92" x1="25.3955" y1="36.4353" x2="37.0786" y2="36.4353" gradientUnits="userSpaceOnUse">
<stop stop-color="#00FFA3"/>
<stop offset="1" stop-color="#DC1FFF"/>
</linearGradient>
<linearGradient id="paint2_linear_26_92" x1="13.7223" y1="36.4353" x2="55.5502" y2="36.4353" gradientUnits="userSpaceOnUse">
<stop stop-color="#00FFA3"/>
<stop offset="1" stop-color="#DC1FFF"/>
</linearGradient>
<linearGradient id="paint3_linear_26_92" x1="14.168" y1="26.4003" x2="36.6313" y2="26.4003" gradientUnits="userSpaceOnUse">
<stop stop-color="#00FFA3"/>
<stop offset="1" stop-color="#DC1FFF"/>
</linearGradient>
<linearGradient id="paint4_linear_26_92" x1="16.2692" y1="34.4519" x2="34.5203" y2="34.4519" gradientUnits="userSpaceOnUse">
<stop stop-color="white" stop-opacity="0.35"/>
<stop offset="1" stop-color="#6895CF"/>
</linearGradient>
</defs>
</svg>
